PathFileType	4	(X/Y/Z)	Demo_SinglePerson_0-99_filt_butterworth.trc
DataRate	CameraRate	NumFrames	NumMarkers	Units	OrigDataRate	OrigDataStartFrame	OrigNumFrames
60	60	6	22	m	60	37	100
Frame#	Time	Hip			RHip			RKnee			RAnkle			RBigToe			RSmallToe			RHeel			LHip			LKnee			LAnkle			LBigToe			LSmallToe			LHeel			Neck			Head			Nose			RShoulder			RElbow			RWrist			LShoulder			LElbow			LWrist			
		X1	Y1	Z1	X2	Y2	Z2	X3	Y3	Z3	X4	Y4	Z4	X5	Y5	Z5	X6	Y6	Z6	X7	Y7	Z7	X8	Y8	Z8	X9	Y9	Z9	X10	Y10	Z10	X11	Y11	Z11	X12	Y12	Z12	X13	Y13	Z13	X14	Y14	Z14	X15	Y15	Z15	X16	Y16	Z16	X17	Y17	Z17	X18	Y18	Z18	X19	Y19	Z19	X20	Y20	Z20	X21	Y21	Z21	X22	Y22	Z22	
37	0.6166666666666667	-0.11118021709675097	0.9201248840062606	-1.1189149463764785	-0.19399483073180182	0.9656393416597869	-1.1008394892254503	-0.4879402417653017	0.6852972612723454	-0.9696825049187225	-0.6664434275689287	0.3291014993652367	-1.078409295455085	-0.7356732148648502	0.27238919013927926	-0.9153451115310101	-0.7644580891217222	0.2852159214521286	-0.9794530450061807	-0.6690052413722	0.28486096894454177	-1.1125123464004392	-0.026363334695928248	0.8597365398059189	-1.086658878690457	-0.06240405846480737	0.48053188847815737	-0.9593465912323963	-0.02325419581320966	0.15576355373564466	-1.145450662664738	-0.03307380403001173	0.0814757410905075	-0.9921393270090944	0.01679413752825792	0.07642140810723001	-1.0308292666397965	-0.012744714175331502	0.1095302429363186	-1.2052541370404508	0.2346428552251365	1.3400771630329116	-1.0738803168577178	0.3643789849804499	1.527743966566432	-0.9370016097413765	0.2761361449960261	1.3843888810866178	-0.924685928484826	0.0571448830433018	1.4070845335293187	-1.154266860682354	-0.19688437616786403	1.439991197347205	-1.2162099292642206	-0.2611643612181145	1.591127318065	-1.017900372343208	0.3396068551206881	1.175289072493156	-1.1082328926782266	0.3536864831262331	0.9003682626454126	-1.0897158780129028	0.33641662680523354	0.6499728676833137	-0.9987011518452799
38	0.6333333333333333	-0.11320941999619104	0.9217784939202961	-1.1126243053678389	-0.19566275562940574	0.9692746588583574	-1.0948494654443879	-0.49461498647318786	0.6928929358313463	-0.9620429575043499	-0.6867236476703124	0.3416513842417925	-1.0660660962222652	-0.7557638364432633	0.2833728664280009	-0.9041468633888708	-0.7840590429668833	0.2958868321719697	-0.9683561312659725	-0.6911122025106005	0.2979708408060603	-1.1005042599189747	-0.0283166968380942	0.860252295898933	-1.0827840787498133	-0.06302675737453332	0.4799271311127483	-0.9573273685273604	-0.024553024061205495	0.15612532076591532	-1.1450313403724672	-0.033068348603148875	0.08020708722517142	-0.9943494462458256	0.016301131364645532	0.07507456683074454	-1.0329626232197264	-0.014037815460277745	0.10970384682370501	-1.2053392175336628	0.23672571979037652	1.336226850038019	-1.0689969055607196	0.37074291049760666	1.517541212152024	-0.9336407569713528	0.2819866302548634	1.3743650165209051	-0.9223112006437316	0.060809408179918034	1.4056269256449467	-1.1452014742228365	-0.19322981071729253	1.4464617277290508	-1.204428628412261	-0.2483278203921635	1.6013840702705153	-1.0087271816737795	0.3410198787783242	1.170714460198328	-1.1058493982834015	0.35604412216594045	0.8967520486083058	-1.0894553563885485	0.34126556362485877	0.6460387515114878	-0.9965785427652774
39	0.65	-0.11516559255234704	0.9234141159535304	-1.1053974747258404	-0.197666612245146	0.9726885877206118	-1.088954794348385	-0.5010781128282424	0.700673369633256	-0.9544260214785794	-0.7061543595177029	0.355398734880717	-1.0534473380395204	-0.7754718362924975	0.29493302500306146	-0.8930854197055292	-0.8036996250677989	0.30689758117233057	-0.9584832381968638	-0.7121333326550346	0.3119240279548231	-1.0881645734910328	-0.030293881190916618	0.8606838598544472	-1.078926537996908	-0.06403793240572625	0.47952165884488407	-0.955650849560633	-0.025946458874489396	0.1566462504200034	-1.1445603636172725	-0.033033299839483464	0.07917209622545308	-0.9971787702824139	0.015720670569981627	0.07399210891826508	-1.0355120059091032	-0.015872508717565223	0.1099461226032731	-1.2049052926361143	0.2383108929347219	1.332570159635971	-1.0642975091021802	0.3760111424255791	1.5067345819310975	-0.9313910717915042	0.2878090818367352	1.3652424223738113	-0.9202143783423022	0.06381228792862868	1.4043963761490577	-1.1356089488813348	-0.18992073622476607	1.4524476393209318	-1.1914818228241837	-0.23498494313327753	1.6109504027623727	-0.9979696326314862	0.3420891669450685	1.1667321786423814	-1.1035500685005006	0.35843196770779023	0.8934573923616916	-1.0891679696192127	0.34622353660117333	0.6429597494270245	-0.9951107567344727
40	0.6666666666666666	-0.11733511356826214	0.9248430035203954	-1.09789935219218	-0.20003529311646423	0.975671800237774	-1.0831636640588156	-0.5072470371774319	0.7083729173223426	-0.9469311025278119	-0.7247538453344513	0.3698284940654707	-1.0407216664987502	-0.7944067050990866	0.3073310973012725	-0.881182720878222	-0.8232999348543739	0.31855932854482644	-0.9491768151665234	-0.7321326906144685	0.32622877378348003	-1.0755828234124052	-0.03246324995256911	0.8609205353012797	-1.0750843169375834	-0.06503334239467756	0.4792955430848265	-0.9542761892480436	-0.027223591210176184	0.1573235438064294	-1.144059264326839	-0.03257291291866483	0.07835154670994866	-1.000509508050261	0.015474580298985675	0.07324624040926969	-1.0382211245206694	-0.01799767548165131	0.11026108237148474	-1.2040491874759682	0.23966266880837467	1.3290726840432876	-1.059521172059154	0.3805287449870912	1.4964583934638571	-0.9292727770352344	0.29322993165119954	1.3573499365655861	-0.9176642318690627	0.06607603403379632	1.4035158190672608	-1.1256638804053487	-0.18694666797487675	1.4579813370628458	-1.1775693108662897	-0.22134108064818742	1.6195740909784115	-0.985251618501449	0.3426757919727792	1.1631188474328082	-1.1011951129772897	0.3606219820627531	0.8904046269570796	-1.0884500897115796	0.3511180660556264	0.6406911422958639	-0.9941240648027686
41	0.6833333333333333	-0.11994790560064203	0.9259634685924913	-1.091527628007891	-0.20270865829802287	0.978149998476625	-1.0775512567060839	-0.5130496516451002	0.7155468251038996	-0.939886777562111	-0.7423682687303089	0.3843077706850381	-1.0284530539863754	-0.8115851943396982	0.32070867829252675	-0.8675094528283906	-0.8421243498985257	0.33109466911848423	-0.9397432715488007	-0.7511486431213343	0.34033323731320836	-1.0631703256976979	-0.034901634732207136	0.8611453121397725	-1.071417121398189	-0.06562050315670694	0.4792582956812531	-0.9531492185176208	-0.02815946728199525	0.158093165634571	-1.1435868746405018	-0.031487736797044294	0.07777712001559837	-1.0039627203192243	0.015796438651749588	0.07286458146829244	-1.0406487200740466	-0.019969166731389106	0.11059613619719988	-1.202980191861266	0.24098808634675759	1.3258874218307182	-1.0542994221841522	0.3846933429316101	1.4878494258171808	-0.9261272876475225	0.29820388206227616	1.3508887208142941	-0.9140780876371655	0.06771710491688619	1.403075978073957	-1.1154048619803603	-0.1842138988979005	1.4631585286306703	-1.1628883103111252	-0.20751099131024026	1.627139309111011	-0.9707035656675522	0.3426569686780163	1.1597921529836475	-1.0985840438370194	0.3623851884480104	0.887729594571517	-1.0869897297012743	0.35588249635478364	0.6390494745345958	-0.9934357957822236
42	0.7	-0.1228801106797802	0.9268891472321854	-1.0871003881701258	-0.20556964960087357	0.9801303657945278	-1.0721006426580972	-0.5184591707309606	0.7218221396046585	-0.933634228042745	-0.7585964810101251	0.39835587235790915	-1.017087078793258	-0.8262082921488884	0.3346317488734499	-0.8522811691172826	-0.8591239210934538	0.3442728733678682	-0.9301569866217033	-0.76900426080685	0.3537912104557127	-1.0512086884551661	-0.03757032575410668	0.8616408615925287	-1.0681182284135735	-0.06564347651711233	0.4794233023893357	-0.9522930277377696	-0.028538448401863453	0.1589216677179714	-1.14320324832625	-0.030003062382481637	0.07770643533706806	-1.0071909453991008	0.016533197948532728	0.07296503361873949	-1.0425217921091035	-0.021293057144766914	0.11099354305859525	-1.201928436417836	0.24224541156478585	1.323138461703973	-1.048385625609066	0.3887388735030526	1.4811637890556173	-0.9215145965872439	0.3031599108895136	1.3456569808543348	-0.9097171111980925	0.0690186897323433	1.403046688586879	-1.1047813484889966	-0.18164061649694568	1.4681061813038998	-1.147327478126047	-0.19358578772257723	1.633652718326253	-0.9547845376670724	0.341980247998181	1.1567434157232055	-1.095475930427378	0.36356643164395835	0.8856402213344766	-1.084589444138767	0.36049500424961456	0.6377422709642029	-0.9927599955842751
